<svg width="249" height="158" viewBox="0 0 249 158" fill="none" xmlns="http://www.w3.org/2000/svg">
<path d="M203.03 33.8571C203.03 52.5914 188.02 67.7143 169.286 67.7143C150.552 67.7143 135.429 52.5914 135.429 33.8571C135.429 15.1229 150.552 0 169.286 0C188.02 0 203.03 15.1229 203.03 33.8571Z" fill="#C3C3C3"/>
<path d="M158.339 90.85C162.289 90.5114 166.013 90.2857 169.286 90.2857C195.582 90.2857 248.286 103.49 248.286 129.786V146.714C248.286 152.921 243.207 158 237 158H178.54C179.782 154.501 180.572 150.664 180.572 146.714V129.786C180.572 113.196 171.656 100.669 158.79 91.3014C158.677 91.1886 158.564 90.9629 158.339 90.85Z" fill="#C3C3C3"/>
<path d="M79 67.7143C97.7343 67.7143 112.744 52.5914 112.744 33.8571C112.744 15.1229 97.7343 0 79 0C60.2657 0 45.1429 15.1229 45.1429 33.8571C45.1429 52.5914 60.2657 67.7143 79 67.7143ZM79 90.2857C52.7043 90.2857 0 103.49 0 129.786V146.714C0 152.921 5.07857 158 11.2857 158H146.714C152.921 158 158 152.921 158 146.714V129.786C158 103.49 105.296 90.2857 79 90.2857Z" fill="#F5C518"/>
</svg>
