<svg width="69" height="39" viewBox="0 0 69 39" fill="none" xmlns="http://www.w3.org/2000/svg">
<g clip-path="url(#clip0_72_4440)" filter="url(#filter0_d_72_4440)">
<path d="M65 2.76909C64.8345 1.41542 63.8299 0.336517 62.5504 0.126465C56.9427 0.126465 12.0817 0.126465 6.47395 0.126465C5.07254 0.356674 4 1.62866 4 3.16161C4 5.62601 4 25.337 4 27.8003C4 29.4977 5.3123 30.8736 6.93224 30.8736C12.4477 30.8736 56.5767 30.8736 62.0922 30.8736C63.5837 30.8736 64.8154 29.7056 65 28.1939C65 23.1091 65 5.31093 65 2.76909Z" fill="#F6C700"/>
<path d="M11.3569 6.30518H16.1977V24.9393H11.3569V6.30518Z" fill="black"/>
<path d="M25.3446 14.8886C24.9287 12.0487 24.6974 10.4701 24.6518 10.155C24.4492 8.63477 24.2561 7.31187 24.0715 6.18311C23.6525 6.18311 21.5615 6.18311 17.7954 6.18311V24.8173H22.0357L22.0506 12.5133L23.8349 24.8173H26.8552L28.5473 12.2396L28.5632 24.8173H32.7897V6.18311H26.4659L25.3446 14.8886Z" fill="black"/>
<path d="M40.7814 10.0595C40.8345 10.2972 40.862 10.8361 40.862 11.6784C40.862 12.4009 40.862 18.1805 40.862 18.9029C40.862 20.1431 40.7814 20.9027 40.6212 21.1827C40.46 21.4628 40.0314 21.6018 39.3365 21.6018C39.3365 20.3786 39.3365 10.5931 39.3365 9.36996C39.8638 9.36996 40.2234 9.42618 40.4143 9.53651C40.6053 9.64791 40.7284 9.82189 40.7814 10.0595ZM42.9679 24.6274C43.5439 24.5011 44.0277 24.2784 44.4202 23.9612C44.8117 23.6429 45.0864 23.2026 45.2434 22.6393C45.4015 22.0771 45.4949 20.96 45.4949 19.2891C45.4949 18.6356 45.4949 13.4002 45.4949 12.7456C45.4949 10.9825 45.4259 9.80067 45.3187 9.20022C45.2105 8.59871 44.9421 8.05236 44.5125 7.56224C44.0818 7.07211 43.4537 6.71991 42.6284 6.50561C41.802 6.29131 40.4547 6.18311 38.1112 6.18311C37.8704 6.18311 36.6674 6.18311 34.5 6.18311V24.8173H40.3645C41.716 24.7748 42.5838 24.7123 42.9679 24.6274Z" fill="black"/>
<path d="M53.3051 21.8423C53.216 22.0789 52.8256 22.1988 52.5307 22.1988C52.2421 22.1988 52.0501 22.0842 51.9525 21.854C51.8549 21.6248 51.8071 21.1018 51.8071 20.2828C51.8071 19.7906 51.8071 15.8505 51.8071 15.3583C51.8071 14.5096 51.8496 13.9802 51.9355 13.7691C52.0204 13.5601 52.2071 13.454 52.4956 13.454C52.7906 13.454 53.1863 13.5739 53.2881 13.8147C53.3889 14.0555 53.4398 14.5701 53.4398 15.3583C53.4398 15.6765 53.4398 17.2678 53.4398 20.1333C53.4091 21.1146 53.3645 21.6842 53.3051 21.8423ZM47.1436 24.6547H51.5016C51.683 23.9428 51.7827 23.5471 51.8029 23.4676C52.1975 23.945 52.6314 24.3035 53.1078 24.5412C53.582 24.7799 54.2917 24.8987 54.8412 24.8987C55.6061 24.8987 56.266 24.6982 56.8229 24.2961C57.3788 23.8951 57.7332 23.4198 57.8838 22.8735C58.0344 22.3261 58.1098 21.4944 58.1098 20.3762C58.1098 19.8532 58.1098 15.6712 58.1098 15.1482C58.1098 14.0237 58.0843 13.2896 58.0344 12.9448C57.9846 12.6 57.8361 12.2489 57.5889 11.8892C57.3417 11.5296 56.9821 11.2506 56.511 11.0512C56.04 10.8517 55.4841 10.752 54.8433 10.752C54.2864 10.752 53.5735 10.8634 53.0982 11.083C52.624 11.3026 52.1933 11.6357 51.8071 12.0823C51.8071 11.6781 51.8071 9.65823 51.8071 6.02051H47.1436V24.6547Z" fill="black"/>
</g>
<defs>
<filter id="filter0_d_72_4440" x="0" y="0.126465" width="69" height="38.7471" filterUnits="userSpaceOnUse" color-interpolation-filters="sRGB">
<feFlood flood-opacity="0" result="BackgroundImageFix"/>
<feColorMatrix in="SourceAlpha" type="matrix" values="0 0 0 0 0 0 0 0 0 0 0 0 0 0 0 0 0 0 127 0" result="hardAlpha"/>
<feOffset dy="4"/>
<feGaussianBlur stdDeviation="2"/>
<feComposite in2="hardAlpha" operator="out"/>
<feColorMatrix type="matrix" values="0 0 0 0 0 0 0 0 0 0 0 0 0 0 0 0 0 0 0.25 0"/>
<feBlend mode="normal" in2="BackgroundImageFix" result="effect1_dropShadow_72_4440"/>
<feBlend mode="normal" in="SourceGraphic" in2="effect1_dropShadow_72_4440" result="shape"/>
</filter>
<clipPath id="clip0_72_4440">
<rect width="61" height="30.7472" fill="white" transform="translate(4 0.126465)"/>
</clipPath>
</defs>
</svg>
